<svg width="364" height="90" viewBox="0 0 364 90" fill="none" xmlns="http://www.w3.org/2000/svg">
<g filter="url(#filter0_d)">
<path d="M53.1126 23.5806L59.1267 17.4223H21.0375L5 1H77.1689V23.5806L64.1384 36.9238L89.1971 62.5836H65.1408L43.0891 40.0029H33.0657V62.5836H17.0282V23.5806H53.1126Z" fill="#FE3030"/>
<path d="M97.6481 1H112.718L104.064 33.8446H122.456V1H138.493V33.8446H142.503V50.2669H138.493V79.0059L122.456 62.5836V50.2669H82.3619L97.6481 1Z" fill="#FE3030"/>
<path d="M182.597 46.1613H214.672V62.5836H142.503L186.606 17.4223H154.531V1H226.7L182.597 46.1613Z" fill="#FE3030"/>
<path d="M218.681 46.1613V17.4223L234.719 1H262.784L278.822 17.4223V46.1613L262.784 62.5836H234.719L218.681 46.1613ZM234.719 25.6334V37.9502L242.737 46.1613H254.765L262.784 37.9502V25.6334L254.765 17.4223H242.737L234.719 25.6334Z" fill="#FE3030"/>
<path d="M318.915 23.5806L324.93 17.4223H286.841L270.803 1H342.972V23.5806L329.941 36.9238L355 62.5836H330.944L308.892 40.0029H298.869V62.5836H282.831V23.5806H318.915Z" fill="#FE3030"/>
<path d="M64.8373 36.9238L77.5266 23.93L77.6689 23.7843V23.5806V1V0.5H77.1689H5H3.81284L4.64228 1.34934L20.6798 17.7716L20.827 17.9223H21.0375H57.9395L52.902 23.0806H17.0282H16.5282V23.5806V62.5836V63.0836H17.0282H33.0657H33.5657V62.5836V40.5029H42.8786L64.783 62.9329L64.9302 63.0836H65.1408H89.1971H90.3842L89.5548 62.2342L64.8373 36.9238ZM97.6481 0.5H97.2798L97.1706 0.851832L81.8844 50.1187L81.6833 50.7669H82.3619H121.956V62.5836V62.7872L122.098 62.9329L138.136 79.3552L138.993 80.2335V79.0059V50.7669H142.503H143.003V50.2669V33.8446V33.3446H142.503H138.993V1V0.5H138.493H122.456H121.956V1V33.3446H104.713L113.202 1.12739L113.367 0.5H112.718H97.6481ZM185.419 17.9223L142.145 62.2342L141.316 63.0836H142.503H214.672H215.172V62.5836V46.1613V45.6613H214.672H183.784L227.057 1.34934L227.887 0.5H226.7H154.531H154.031V1V17.4223V17.9223H154.531H185.419ZM218.181 46.1613V46.3649L218.323 46.5106L234.361 62.9329L234.508 63.0836H234.719H262.784H262.995L263.142 62.9329L279.179 46.5106L279.322 46.3649V46.1613V17.4223V17.2186L279.179 17.073L263.142 0.650662L262.995 0.5H262.784H234.719H234.508L234.361 0.650662L218.323 17.073L218.181 17.2186V17.4223V46.1613ZM299.369 62.5836V40.5029H308.681L330.586 62.9329L330.733 63.0836H330.944H355H356.187L355.358 62.2342L330.64 36.9238L343.33 23.93L343.472 23.7843V23.5806V1V0.5H342.972H270.803H269.616L270.445 1.34934L286.483 17.7716L286.63 17.9223H286.841H323.742L318.705 23.0806H282.831H282.331V23.5806V62.5836V63.0836H282.831H298.869H299.369V62.5836ZM242.948 45.6613L235.219 37.7465V25.8371L242.948 17.9223H254.555L262.284 25.8371V37.7465L254.555 45.6613H242.948Z" stroke="black" stroke-opacity="0.2"/>
</g>
<defs>
<filter id="filter0_d" x="0.625488" y="0" width="362.749" height="89.4611" filterUnits="userSpaceOnUse" color-interpolation-filters="sRGB">
<feFlood flood-opacity="0" result="BackgroundImageFix"/>
<feColorMatrix in="SourceAlpha" type="matrix" values="0 0 0 0 0 0 0 0 0 0 0 0 0 0 0 0 0 0 127 0"/>
<feOffset dx="2" dy="4"/>
<feGaussianBlur stdDeviation="2"/>
<feColorMatrix type="matrix" values="0 0 0 0 0 0 0 0 0 0 0 0 0 0 0 0 0 0 0.64 0"/>
<feBlend mode="normal" in2="BackgroundImageFix" result="effect1_dropShadow"/>
<feBlend mode="normal" in="SourceGraphic" in2="effect1_dropShadow" result="shape"/>
</filter>
</defs>
</svg>
