<svg width="263" height="68" viewBox="0 0 263 68" fill="none" xmlns="http://www.w3.org/2000/svg">
<g filter="url(#filter0_d)">
<path d="M40.1797 17.168L44.5742 12.7734H16.7422L5.02344 1.05469H57.7578V17.168L48.2363 26.6895L66.5469 45H48.9688L32.8555 28.8867H25.5312V45H13.8125V17.168H40.1797Z" fill="#FE3030"/>
<path d="M60.6875 1.05469H72.4062V24.4922H89.9844V1.05469H101.703V24.4922H104.633V36.2109H101.703V56.7188L89.9844 45V36.2109H60.6875V1.05469Z" fill="#FE3030"/>
<path d="M128.07 33.2812H151.508V45H98.7734L131 12.7734H107.562V1.05469H160.297L128.07 33.2812Z" fill="#FE3030"/>
<path d="M154.438 33.2812V12.7734L166.156 1.05469H186.664L198.383 12.7734V33.2812L186.664 45H166.156L154.438 33.2812ZM166.156 18.6328V27.4219L172.016 33.2812H180.805L186.664 27.4219V18.6328L180.805 12.7734H172.016L166.156 18.6328Z" fill="#FE3030"/>
<path d="M227.68 17.168L232.074 12.7734H204.242L192.523 1.05469H245.258V17.168L235.736 26.6895L254.047 45H236.469L220.355 28.8867H213.031V45H201.312V17.168H227.68Z" fill="#FE3030"/>
<path d="M48.9434 26.6895L58.1114 17.5215L58.2578 17.3751V17.168V1.05469V0.554688H57.7578H5.02344H3.81633L4.66988 1.40824L16.3886 13.127L16.5351 13.2734H16.7422H43.3671L39.9726 16.668H13.8125H13.3125V17.168V45V45.5H13.8125H25.5312H26.0312V45V29.3867H32.6484L48.6152 45.3536L48.7616 45.5H48.9688H66.5469H67.754L66.9004 44.6464L48.9434 26.6895ZM60.6875 0.554688H60.1875V1.05469V36.2109V36.7109H60.6875H89.4844V45V45.2071L89.6308 45.3536L101.35 57.0723L102.203 57.9259V56.7188V45.5H151.508H152.008V45V33.2812V32.7812H151.508H129.277L160.65 1.40824L161.504 0.554688H160.297H107.562H107.062V1.05469V12.7734V13.2734H107.562H129.793L102.203 40.8632V36.7109H104.633H105.133V36.2109V24.4922V23.9922H104.633H102.203V1.05469V0.554688H101.703H89.9844H89.4844V1.05469V23.9922H72.9062V1.05469V0.554688H72.4062H60.6875ZM153.938 33.2812V33.4884L154.084 33.6348L165.803 45.3536L165.949 45.5H166.156H186.664H186.871L187.018 45.3536L198.736 33.6348L198.883 33.4884V33.2812V12.7734V12.5663L198.736 12.4199L187.018 0.701134L186.871 0.554688H186.664H166.156H165.949L165.803 0.701134L154.084 12.4199L153.938 12.5663V12.7734V33.2812ZM213.531 45V29.3867H220.148L236.115 45.3536L236.262 45.5H236.469H254.047H255.254L254.4 44.6464L236.443 26.6895L245.611 17.5215L245.758 17.3751V17.168V1.05469V0.554688H245.258H192.523H191.316L192.17 1.40824L203.889 13.127L204.035 13.2734H204.242H230.867L227.473 16.668H201.312H200.812V17.168V45V45.5H201.312H213.031H213.531V45ZM172.223 32.7812L166.656 27.2148V18.8399L172.223 13.2734H180.598L186.164 18.8399V27.2148L180.598 32.7812H172.223Z" stroke="black" stroke-opacity="0.2"/>
</g>
<defs>
<filter id="filter0_d" x="0.609375" y="0.0546875" width="261.852" height="67.0783" filterUnits="userSpaceOnUse" color-interpolation-filters="sRGB">
<feFlood flood-opacity="0" result="BackgroundImageFix"/>
<feColorMatrix in="SourceAlpha" type="matrix" values="0 0 0 0 0 0 0 0 0 0 0 0 0 0 0 0 0 0 127 0"/>
<feOffset dx="2" dy="4"/>
<feGaussianBlur stdDeviation="2"/>
<feColorMatrix type="matrix" values="0 0 0 0 0 0 0 0 0 0 0 0 0 0 0 0 0 0 0.64 0"/>
<feBlend mode="normal" in2="BackgroundImageFix" result="effect1_dropShadow"/>
<feBlend mode="normal" in="SourceGraphic" in2="effect1_dropShadow" result="shape"/>
</filter>
</defs>
</svg>
